<?xml version="1.0" encoding="UTF-8" standalone="no"?>
<!DOCTYPE svg PUBLIC "-//W3C//DTD SVG 1.1//EN" "http://www.w3.org/Graphics/SVG/1.1/DTD/svg11.dtd">
<!-- Generated by Microsoft Visio, SVG Export hm_4.svg Page-1 -->
<svg xmlns="http://www.w3.org/2000/svg" xmlns:xlink="http://www.w3.org/1999/xlink" xmlns:ev="http://www.w3.org/2001/xml-events"
		width="2.5in" height="2.0in" viewBox="50 0 240 250" xml:space="preserve" color-interpolation-filters="sRGB"
		class="st4">
	<style type="text/css">
	<![CDATA[
		.st1 {stroke:#FFFFFF;stroke-linecap:round;stroke-linejoin:round;stroke-width:4.5}
		.st2 {stroke:#FFFFFF;stroke-linecap:round;stroke-linejoin:round;stroke-width:6}
		.st3 {fill:none;stroke:#FFFFFF;stroke-linecap:round;stroke-linejoin:round;stroke-width:4.5}
		.st4 {fill:none;fill-rule:evenodd;font-size:12px;overflow:visible;stroke-linecap:square;stroke-miterlimit:3}
	]]>
	</style>

	<g>
		<title>Page-1</title>
		<g id="shape85-1" transform="translate(415.077,93.2667) rotate(89.8635)">
			<title>Line with extensions.85</title>
			<path d="M1.79 271.2 L69.29 271.2" class="st1"/>
		</g>
		<g id="shape4-4" transform="translate(21,-27.6) rotate(3.10463E-06)">
			<title>Perpendicular lines</title>
			<path d="M38.25 271.2 L38.25 55.2" class="st2"/>
			<path d="M0 271.2 L198 271.2" class="st2"/>
		</g>
		<g id="shape5-8" transform="translate(61.1699,-243.593) rotate(0.405628)">
			<title>Perpendicular lines.5</title>
			<path d="M84.75 271.2 L84.75 288.56" class="st1"/>
			<path d="M0 271.2 L84.75 271.2" class="st1"/>
		</g>
		<g id="shape7-12" transform="translate(-14.2356,332.218) rotate(-144.326)">
			<title>Line with extensions.7</title>
			<path d="M-1.31 271.2 L66.38 271.2" class="st1"/>
		</g>
		<g id="shape10-15" transform="translate(-13.9289,-108.62) rotate(-35.5942)">
			<title>Line with extensions.10</title>
			<path d="M0.78 271.2 L66.51 271.2" class="st1"/>
		</g>
		<g id="shape11-18" transform="translate(143.878,-201.463)">
			<title>Center Drag Circle</title>
			<path d="M-24.18 271.2 A24.1759 24.1759 0 0 1 24.18 271.2 A24.1759 24.1759 0 1 1 -24.18 271.2 Z" class="st3"/>
		</g>
		<g id="shape13-20" transform="translate(290.85,213.085) rotate(133.152)">
			<title>Line with extensions.13</title>
			<path d="M0 271.2 L51.19 271.2" class="st1"/>
		</g>
		<g id="shape16-23" transform="translate(216.75,505.8) rotate(180)">
			<title>Line with extensions.16</title>
			<path d="M17.8 271.2 L159.35 271.2" class="st1"/>
		</g>
		<g id="shape87-26" transform="translate(13.7157,-178.369) rotate(-26.5651)">
			<title>Center Drag Circle.87</title>
			<path d="M-5.03 271.2 A5.03115 5.03115 0 0 1 5.03 271.2 A5.03115 5.03115 0 1 1 -5.03 271.2 Z" class="st3"/>
		</g>
		<g id="shape88-28" transform="translate(31.7157,-178.369) rotate(-26.5651)">
			<title>Center Drag Circle.88</title>
			<path d="M-5.03 271.2 A5.03115 5.03115 0 0 1 5.03 271.2 A5.03115 5.03115 0 1 1 -5.03 271.2 Z" class="st3"/>
		</g>
		<g id="shape91-30" transform="translate(232.209,336.518) rotate(164.146)">
			<title>Line with extensions.91</title>
			<path d="M0.61 271.2 L23.49 271.2" class="st1"/>
		</g>
	</g>
</svg>
