<?xml version="1.0" encoding="UTF-8" standalone="no"?>
<!DOCTYPE svg PUBLIC "-//W3C//DTD SVG 1.1//EN" "http://www.w3.org/Graphics/SVG/1.1/DTD/svg11.dtd">
<!-- Generated by Microsoft Visio, SVG Export hm_7.svg Page-1 -->
<svg xmlns="http://www.w3.org/2000/svg" xmlns:xlink="http://www.w3.org/1999/xlink" xmlns:ev="http://www.w3.org/2001/xml-events"
		width="2.5in" height="2.0in" viewBox="50 0 240 250" xml:space="preserve" color-interpolation-filters="sRGB"
		class="st5">
	<style type="text/css">
	<![CDATA[
		.st1 {stroke:#FFFFFF;stroke-linecap:round;stroke-linejoin:round;stroke-width:6}
		.st2 {stroke:#FFFFFF;stroke-linecap:round;stroke-linejoin:round;stroke-width:4.5}
		.st3 {fill:none;stroke:#FFFFFF;stroke-linecap:round;stroke-linejoin:round;stroke-width:4.5}
		.st4 {fill:none;stroke:#FFFFFF;stroke-linecap:round;stroke-linejoin:round;stroke-width:2.25}
		.st5 {fill:none;fill-rule:evenodd;font-size:12px;overflow:visible;stroke-linecap:square;stroke-miterlimit:3}
	]]>
	</style>

	<g>
		<title>Page-1</title>
		<g id="shape4-1" transform="translate(21,-27.6) rotate(3.10463E-06)">
			<title>Perpendicular lines</title>
			<path d="M38.25 271.2 L38.25 55.2" class="st1"/>
			<path d="M0 271.2 L198 271.2" class="st1"/>
		</g>
		<g id="shape5-5" transform="translate(61.1699,-243.593) rotate(0.405628)">
			<title>Perpendicular lines.5</title>
			<path d="M84.75 271.2 L84.75 288.56" class="st2"/>
			<path d="M0 271.2 L84.75 271.2" class="st2"/>
		</g>
		<g id="shape11-9" transform="translate(143.878,-201.463)">
			<title>Center Drag Circle</title>
			<path d="M-24.18 271.2 A24.1759 24.1759 0 0 1 24.18 271.2 A24.1759 24.1759 0 1 1 -24.18 271.2 Z" class="st3"/>
		</g>
		<g id="shape13-11" transform="translate(290.85,213.085) rotate(133.152)">
			<title>Line with extensions.13</title>
			<path d="M0 271.2 L51.19 271.2" class="st2"/>
		</g>
		<g id="shape16-14" transform="translate(216.75,505.8) rotate(180)">
			<title>Line with extensions.16</title>
			<path d="M17.8 271.2 L159.35 271.2" class="st2"/>
		</g>
		<g id="shape88-17" transform="translate(31.7157,-178.369) rotate(-26.5651)">
			<title>Center Drag Circle.88</title>
			<path d="M-5.03 271.2 A5.03115 5.03115 0 0 1 5.03 271.2 A5.03115 5.03115 0 1 1 -5.03 271.2 Z" class="st3"/>
		</g>
		<g id="shape111-19" transform="translate(13.7157,-178.369) rotate(-26.5651)">
			<title>Center Drag Circle.111</title>
			<path d="M-5.03 271.2 A5.03115 5.03115 0 0 1 5.03 271.2 A5.03115 5.03115 0 1 1 -5.03 271.2 Z" class="st3"/>
		</g>
		<g id="shape113-21" transform="translate(-47.7674,-109.567) rotate(-45)">
			<title>Center Drag Circle.113</title>
			<path d="M-6.36 271.2 A6.36396 6.36396 0 0 1 6.36 271.2 A6.36396 6.36396 0 1 1 -6.36 271.2 Z" class="st4"/>
		</g>
	</g>
</svg>
