<?xml version="1.0" encoding="UTF-8" standalone="no"?>
<!DOCTYPE svg PUBLIC "-//W3C//DTD SVG 1.1//EN" "http://www.w3.org/Graphics/SVG/1.1/DTD/svg11.dtd">
<!-- Generated by Microsoft Visio, SVG Export hm_8.svg Page-1 -->
<svg xmlns="http://www.w3.org/2000/svg" xmlns:xlink="http://www.w3.org/1999/xlink" xmlns:ev="http://www.w3.org/2001/xml-events"
		width="2.5in" height="2.0in" viewBox="50 0 240 250" xml:space="preserve" color-interpolation-filters="sRGB"
		class="st6">
	<style type="text/css">
	<![CDATA[
		.st1 {stroke:#FFFFFF;stroke-linecap:round;stroke-linejoin:round;stroke-width:6}
		.st2 {stroke:#FFFFFF;stroke-linecap:round;stroke-linejoin:round;stroke-width:4.5}
		.st3 {fill:none;stroke:#FFFFFF;stroke-linecap:round;stroke-linejoin:round;stroke-width:4.5}
		.st4 {fill:#FFFFFF;stroke:#FFFFFF;stroke-linecap:round;stroke-linejoin:round;stroke-width:0.24}
		.st5 {fill:#d9d9d9;stroke:#FFFFFF;stroke-linecap:round;stroke-linejoin:round;stroke-width:4.5}
		.st6 {fill:none;fill-rule:evenodd;font-size:12px;overflow:visible;stroke-linecap:square;stroke-miterlimit:3}
	]]>
	</style>

	<g>
		<title>Page-1</title>
		<g id="shape4-1" transform="translate(21,-27.6) rotate(3.10463E-06)">
			<title>Perpendicular lines</title>
			<path d="M38.25 271.2 L38.25 55.2" class="st1"/>
			<path d="M0 271.2 L198 271.2" class="st1"/>
		</g>
		<g id="shape5-5" transform="translate(61.1699,-243.593) rotate(0.405628)">
			<title>Perpendicular lines.5</title>
			<path d="M84.93 271.2 L84.93 295.95" class="st2"/>
			<path d="M0 271.2 L84.93 271.2" class="st2"/>
		</g>
		<g id="shape13-9" transform="translate(290.85,213.085) rotate(133.152)">
			<title>Line with extensions.13</title>
			<path d="M0 271.2 L51.19 271.2" class="st2"/>
		</g>
		<g id="shape16-12" transform="translate(216.75,505.8) rotate(180)">
			<title>Line with extensions.16</title>
			<path d="M17.8 271.2 L159.35 271.2" class="st2"/>
		</g>
		<g id="shape11-15" transform="translate(146.824,-67.1294)">
			<title>Center Drag Circle</title>
			<path d="M-24.18 271.2 A24.1759 24.1759 0 0 1 24.18 271.2 A24.1759 24.1759 0 1 1 -24.18 271.2 Z" class="st3"/>
		</g>
		<g id="shape115-17" transform="translate(318.892,6.14774) rotate(45)">
			<title>Cross</title>
			<path d="M0 264.78 L6.42 264.78 L6.42 271.2 L9.6 271.2 L9.6 264.78 L16.02 264.78 L16.02 261.6 L9.6 261.6 L9.6 255.18
						 L6.42 255.18 L6.42 261.6 L0 261.6 L0 264.78 Z" class="st4"/>
		</g>
		<g id="shape148-19" transform="translate(336.892,6.14774) rotate(45)">
			<title>Cross.148</title>
			<path d="M0 264.78 L6.42 264.78 L6.42 271.2 L9.6 271.2 L9.6 264.78 L16.02 264.78 L16.02 261.6 L9.6 261.6 L9.6 255.18
						 L6.42 255.18 L6.42 261.6 L0 261.6 L0 264.78 Z" class="st4"/>
		</g>
		<g id="shape149-21" transform="translate(339.222,398.69) rotate(135)">
			<title>Curved panel</title>
			<path d="M-0.75 257.42 A14.5338 14.5338 -180 0 0 13.78 271.95 L13.78 270.45 A13.0338 13.0338 0 0 1 0.75 257.42 L-0.75
						 257.42 Z" class="st5"/>
		</g>
	</g>
</svg>
