<?xml version="1.0" encoding="UTF-8" standalone="no"?>
<!DOCTYPE svg PUBLIC "-//W3C//DTD SVG 1.1//EN" "http://www.w3.org/Graphics/SVG/1.1/DTD/svg11.dtd">
<!-- Generated by Microsoft Visio, SVG Export hangman_anmation_1.svg Page-1 -->
<svg xmlns="http://www.w3.org/2000/svg" xmlns:xlink="http://www.w3.org/1999/xlink" xmlns:ev="http://www.w3.org/2001/xml-events"
		width="8.5in" height="11in" viewBox="0 0 612 792" xml:space="preserve" color-interpolation-filters="sRGB" class="st4">
	<style type="text/css">
	<![CDATA[
		.st1 {stroke:#000000;stroke-linecap:round;stroke-linejoin:round;stroke-width:4.5}
		.st2 {stroke:#000000;stroke-linecap:round;stroke-linejoin:round;stroke-width:6}
		.st3 {fill:#ffffff;stroke:#000000;stroke-linecap:round;stroke-linejoin:round;stroke-width:4.5}
		.st4 {fill:none;fill-rule:evenodd;font-size:12px;overflow:visible;stroke-linecap:square;stroke-miterlimit:3}
	]]>
	</style>

	<g>
		<title>Page-1</title>
		<g id="shape12-1" transform="translate(1080,279) rotate(90)">
			<title>Line with extensions.12</title>
			<path d="M0 792 L31.5 792" class="st1"/>
		</g>
		<g id="shape4-4" transform="translate(184.5,-360)">
			<title>Perpendicular lines</title>
			<path d="M35 792 L35 576" class="st2"/>
			<path d="M0 792 L157.5 792" class="st2"/>
		</g>
		<g id="shape5-8" transform="translate(219.5,-576)">
			<title>Perpendicular lines.5</title>
			<path d="M68.5 792 L68.5 837" class="st1"/>
			<path d="M0 792 L68.5 792" class="st1"/>
		</g>
		<g id="shape6-12" transform="translate(1080,279) rotate(90)">
			<title>Line with extensions</title>
			<path d="M31.5 792 L81 792" class="st1"/>
		</g>
		<g id="shape7-15" transform="translate(809.536,906.541) rotate(138.814)">
			<title>Line with extensions.7</title>
			<path d="M0 792 L47.84 792" class="st1"/>
		</g>
		<g id="shape8-18" transform="translate(848.029,-200.028) rotate(45)">
			<title>Line with extensions.8</title>
			<path d="M-0 792 L50.91 792" class="st1"/>
		</g>
		<g id="shape9-21" transform="translate(848.029,920.029) rotate(135)">
			<title>Line with extensions.9</title>
			<path d="M0 792 L50.91 792" class="st1"/>
		</g>
		<g id="shape10-24" transform="translate(809.536,-285.541) rotate(41.1859)">
			<title>Line with extensions.10</title>
			<path d="M1.92 792 L46.01 792" class="st1"/>
		</g>
		<g id="shape11-27" transform="translate(288,-513)">
			<title>Center Drag Circle</title>
			<path d="M-15.75 792 A15.75 15.75 0 0 1 15.75 792 A15.75 15.75 0 1 1 -15.75 792 Z" class="st3"/>
		</g>
	</g>
</svg>
